# xmcd
#
# Track frame offsets: 
#        150
#        17968
#        38426
#        55833
#        72784
#        86909
#        100951
#        114615
#        128117
#        142309
#        159097
#        179364
#        191786
#        208497
#        224733
#        240717
#        256196
#        277272
#        292141
#        309748
#        322290
#        337048
#        352100
#
# Disc length: 4802 seconds
#
# Revision: 0
# Processed by: cddbd v1.5.2PL0 Copyright (c) Steve Scherf et al.
# Submitted via: ExactAudioCopyFreeDBPlugin 1.0
#
DISCID=8612c017
DTITLE=Various Artist - Club Rotation Vol.4
DYEAR=2000
DGENRE=Trance
TTITLE0=Storm - Time To Burn
TTITLE1=Martillo Vago - Por Qué No 2
TTITLE2=Fast Creation - I Like To Feel You
TTITLE3=DJ Taylor and Flow - Exzess
TTITLE4=Bomb Man - Balcanio
TTITLE5=Porn Kings - Shake Ya Shimmy
TTITLE6=Nick Skitz - Atlantis (ATB Remix)
TTITLE7=Scoopex - Forever
TTITLE8=Paffendorf - Shoot It Out
TTITLE9=666 - Salute!
TTITLE10=Bad Habit Boys - Rock Ya
TTITLE11=Marc Et Claude - I Need Your Loving
TTITLE12=Tomcraft vs. Sunbeam - Versus
TTITLE13=Miss Shiva - Do You Feel So Right
TTITLE14=DJ Visage - Der Totale Beat
TTITLE15=DJ Peter Project - 2 New York
TTITLE16=Prezioso feat. Marvin - Rock The Discothek
TTITLE17=Antiloop - Only U
TTITLE18=Tank - I Hear Those Drums
TTITLE19=Agnelli and Nelson - Embrace
TTITLE20=C.O.P. Project - Pornostar
TTITLE21=A Seven feat. IC - Piece Of Heaven
TTITLE22=Tunnel Allstars - Blue Lagoon
EXTD=
EXTT0=
EXTT1=
EXTT2=
EXTT3=
EXTT4=
EXTT5=
EXTT6=
EXTT7=
EXTT8=
EXTT9=
EXTT10=
EXTT11=
EXTT12=
EXTT13=
EXTT14=
EXTT15=
EXTT16=
EXTT17=
EXTT18=
EXTT19=
EXTT20=
EXTT21=
EXTT22=
PLAYORDER=
